<?xml version="1.0" encoding="iso-8859-1"?>
<!-- Generator: Adobe Illustrator 22.0.1, SVG Export Plug-In . SVG Version: 6.00 Build 0)  -->
<svg version="1.1" id="Layer_1" xmlns="http://www.w3.org/2000/svg" xmlns:xlink="http://www.w3.org/1999/xlink" x="0px" y="0px"
	 viewBox="0 0 1024 768" style="enable-background:new 0 0 1024 768;" xml:space="preserve">
<g>
	<path style="fill:#D4EA36;" d="M644.085,721.704c-21.261,0-37.025-3.797-48.196-11.609c-11.322-7.918-14.438-17.703-15.286-22.832
		l-0.907-5.014l1.146-4.716l0.027-0.186c0.326-2.236,1.863-14.907,0.113-44.856c-2.611-44.708-3.89-73.56,0.364-97.185
		c1.924-10.682,1.169-41.953-0.434-68.205l-0.074-1.223l-0.746-0.972c-12.045-15.675-42.075-55.314-60.755-84.77
		c-2.78-4.383-5.498-9.045-8.079-13.856l-3.487-6.499l-3.545,6.467c-16.704,30.465-42.987,70.632-53.511,86.488l-0.677,1.021
		l0.01,1.224c0.215,26.293,1.623,57.538,4.281,68.072c5.877,23.279,6.595,52.148,7.079,96.927
		c0.322,29.823,2.713,42.433,3.188,44.658l0.041,0.189l1.392,4.377l-0.052,0.607l0.89,3.289l-1.272,1.504l-0.156,1.157
		c-1.297,9.628-7.423,18.771-16.809,25.086c-12.967,8.724-32.086,12.965-58.448,12.965c-6.021,0-12.529-0.226-19.343-0.669
		c-66.453-4.338-98.192-12.719-101.592-13.66l-5.636-1.56L231.299,669.8l-2.224-6.688c-1.12-3.37-11.101-34.462-16.589-87.535
		c-4.637-44.843-9.635-74.615-10.59-80.128l-0.03-0.176l-0.046-0.172c-9.077-34.056-13.52-66.535-17.089-92.633
		c-2.063-15.076-3.84-28.068-5.944-37.088c-1.133-4.858-3.401-12.595-6.027-21.554c-5.874-20.042-13.182-44.978-17.923-70.166
		c-5.853-31.094-6.388-55.392-1.635-74.283c7.343-29.187,17.956-53.333,31.542-71.769c14.528-19.71,32.417-32.316,51.733-36.455
		c43.561-9.333,95.249-20.966,102.765-23.408c1.037-0.337,2.457-0.838,4.101-1.419l0.195-0.069
		c10.796-3.816,27.118-9.586,43.333-9.586c9.353,0,17.683,1.965,24.759,5.84c8.186,4.483,22.632,15.062,53.452,55.007
		c4.138,5.363,7.249,12.749,9.246,21.953l0.513,2.361l15.323,4.243l1.483,0.618c1.899,0.791,11.898,5.229,22.191,14.933l2.034,1.917
		l3.675-1.838l14.993-5.292l0.348-2.392c1.357-9.32,3.95-16.903,7.707-22.539c27.985-41.978,41.667-53.531,49.523-58.569
		c7.975-5.114,17.842-7.707,29.326-7.707c14.575,0,29.194,4.057,38.868,6.741l0.215,0.06c1.7,0.472,3.125,0.866,4.166,1.126
		c7.564,1.891,60.954,10.082,104.14,16.251c19.556,2.793,38.272,14.133,54.128,32.793c14.828,17.452,27.084,40.807,36.426,69.417
		c6.047,18.517,7.192,42.794,3.503,74.219c-2.99,25.459-8.561,50.849-13.036,71.25c-2.005,9.139-3.728,16.995-4.52,21.904
		c-1.478,9.166-2.354,22.261-3.367,37.425c-1.759,26.287-3.947,58.987-10.646,93.578l-0.034,0.175l-0.019,0.177
		c-0.571,5.561-3.499,35.58-5.027,80.669c-1.809,53.357-9.617,85.036-10.502,88.473l-1.755,6.827l-30.291,30.291l-5.515,1.946
		c-3.324,1.173-34.394,11.725-100.405,20.646C665.342,720.853,654.007,721.704,644.085,721.704z"/>
	<path d="M386.871,60.671c8.674,0,16.357,1.799,22.838,5.348c4.535,2.483,18.334,10.04,52.207,53.942
		c3.772,4.889,6.633,11.738,8.504,20.358l1.025,4.723l4.658,1.29l11.446,3.17l0.587,0.163l0.72,0.199l0.69,0.287l0.563,0.234
		c1.787,0.744,11.198,4.924,20.987,14.151l4.068,3.834l4.999-2.502l0.28-0.14l0.67-0.335l0.705-0.249l0.574-0.203l11.2-3.953
		l4.558-1.609l0.696-4.783c1.271-8.728,3.652-15.759,7.077-20.897c30.759-46.138,44.002-54.63,48.354-57.42
		c7.321-4.694,16.461-7.074,27.168-7.074c14.03,0,28.334,3.969,37.804,6.597l0.208,0.058c1.683,0.467,3.137,0.871,4.267,1.153
		c8.5,2.125,66.176,10.849,104.543,16.33c18.574,2.654,36.433,13.52,51.646,31.424c14.491,17.054,26.493,39.956,35.672,68.068
		c5.863,17.956,6.953,41.675,3.332,72.511c-2.967,25.263-8.513,50.545-12.972,70.87c-2.011,9.169-3.748,17.088-4.559,22.114
		c-1.506,9.339-2.388,22.526-3.41,37.798c-1.751,26.167-3.93,58.732-10.582,93.081l-0.068,0.35l-0.036,0.354
		c-0.574,5.587-3.515,35.749-5.047,80.942c-1.793,52.903-9.505,84.217-10.378,87.613l-0.666,2.59l-0.817,3.177l-2.32,2.32
		l-1.89,1.89L785,689.617l-1.569,1.569l-1.925,1.925l-2.567,0.906l-2.092,0.738c-3.285,1.16-33.992,11.587-99.609,20.454
		c-12.253,1.656-23.407,2.495-33.154,2.495c-20.412,0-35.428-3.561-45.903-10.887c-10.123-7.079-12.886-15.699-13.632-20.207
		l-0.01-0.06l-0.011-0.06l-0.293-1.618l-0.453-2.502l0.601-2.471l0.301-1.24l0.089-0.365l0.054-0.372
		c0.336-2.305,1.92-15.337,0.148-45.666c-2.594-44.41-3.868-73.049,0.308-96.243c2.118-11.767,1.121-44.609-0.378-69.158
		l-0.149-2.445l-1.492-1.942c-12.013-15.635-41.961-55.164-60.548-84.475c-2.731-4.307-5.4-8.885-7.933-13.605l-6.973-12.997
		l-7.091,12.933c-16.629,30.327-42.839,70.384-53.336,86.199l-1.354,2.041l0.02,2.449c0.201,24.589,1.474,57.419,4.402,69.018
		c5.768,22.85,6.477,51.509,6.957,95.992c0.326,30.2,2.787,43.159,3.277,45.451l0.081,0.38l0.118,0.37l0.37,1.166l0.721,2.27
		l-0.044,0.517l0.367,1.359l0.158,0.583l-0.671,0.793l-0.312,2.316c-1.145,8.496-6.64,16.624-15.078,22.301
		c-12.286,8.266-30.674,12.284-56.215,12.284c-5.943,0-12.364-0.222-19.082-0.661c-66.047-4.31-97.425-12.592-100.785-13.522
		l-2.139-0.592l-2.623-0.726l-2.053-1.787l-1.673-1.457l-22.585-19.659l-2.017-1.756l-2.474-2.154l-1.035-3.113l-0.843-2.537
		c-1.106-3.328-10.963-34.037-16.407-86.686c-4.651-44.98-9.669-74.865-10.628-80.399l-0.061-0.351l-0.092-0.344
		c-9.011-33.812-13.436-66.156-16.991-92.147c-2.073-15.155-3.864-28.244-6.011-37.452c-1.157-4.961-3.439-12.746-6.083-21.77
		c-5.848-19.952-13.126-44.783-17.831-69.78c-5.743-30.512-6.295-54.25-1.687-72.568c7.215-28.68,17.606-52.356,30.883-70.371
		c13.939-18.912,31.004-30.986,49.351-34.917c37.9-8.12,94.837-20.81,103.163-23.515c1.104-0.359,2.527-0.862,4.215-1.458
		l0.173-0.061C355.409,66.303,371.341,60.671,386.871,60.671 M386.871,52.671c-16.903,0-33.614,5.908-44.673,9.817l-0.177,0.063
		c-1.61,0.569-3.001,1.061-4.015,1.391c-7.29,2.368-59.8,14.181-102.367,23.301c-20.286,4.346-38.999,17.484-54.115,37.993
		c-13.898,18.856-24.732,43.472-32.202,73.165c-4.897,19.465-4.379,44.325,1.583,76c4.779,25.385,12.118,50.428,18.016,70.55
		c2.61,8.904,4.863,16.592,5.969,21.337c2.063,8.846,3.83,21.764,5.876,36.723c3.589,26.237,8.048,58.828,17.187,93.12
		c1.037,5.988,5.951,35.353,10.553,79.857c5.532,53.497,15.639,84.973,16.773,88.386l0.844,2.538l1.724,5.188l4.123,3.589
		l2.017,1.756l22.586,19.659l1.673,1.457l3.422,2.978l4.372,1.211l2.138,0.592c3.443,0.953,35.549,9.432,102.399,13.795
		c6.891,0.45,13.487,0.678,19.603,0.678c27.183,0,47.032-4.464,60.681-13.646c10.405-7,17.088-17.083,18.541-27.87l1.873-2.213
		l-1.253-4.635l0.059-0.697l-1.203-3.784l-0.37-1.165c-0.428-2.001-2.781-14.302-3.1-43.864c-0.487-45.074-1.215-74.153-7.2-97.864
		c-2.509-9.938-3.939-40.204-4.159-67.125c11.514-17.346,37.129-56.581,53.686-86.777c2.633,4.908,5.377,9.614,8.226,14.107
		c18.554,29.258,47.951,68.133,60.961,85.065c1.64,26.876,2.305,57.171,0.489,67.253c-4.332,24.067-3.049,53.127-0.42,98.127
		c1.738,29.745,0.202,42.123-0.078,44.046l-0.301,1.24l-1.001,4.118l0.755,4.17l0.293,1.618c0.975,5.894,4.483,16.746,16.94,25.457
		c11.865,8.297,28.38,12.331,50.488,12.331c10.104,0,21.619-0.864,34.225-2.568c66.409-8.974,97.836-19.65,101.201-20.838
		l2.091-0.738l4.279-1.51l3.208-3.208l1.569-1.569l21.172-21.172l1.89-1.89l3.867-3.866l1.362-5.295l0.666-2.59
		c0.896-3.484,8.803-35.583,10.625-89.334c1.516-44.712,4.388-74.351,5.009-80.396c6.747-34.84,8.943-67.658,10.71-94.072
		c1.008-15.072,1.879-28.084,3.325-37.054c0.775-4.807,2.491-12.628,4.478-21.684c4.496-20.495,10.088-45.985,13.101-71.641
		c3.759-32.011,2.558-56.847-3.672-75.927c-9.504-29.106-22.013-52.915-37.181-70.765c-16.497-19.416-36.073-31.229-56.611-34.163
		c-43.093-6.156-96.294-14.312-103.734-16.172c-1.027-0.257-2.436-0.648-4.068-1.101l-0.214-0.059
		c-9.883-2.742-24.819-6.887-39.938-6.887c-12.262,0-22.856,2.806-31.486,8.34c-8.158,5.231-22.289,17.114-50.692,59.717
		c-4.103,6.155-6.892,14.256-8.337,24.182l-11.2,3.953l-0.574,0.203l-1.176,0.415l-1.116,0.558l-0.281,0.141
		c-10.613-10.003-20.804-14.634-23.399-15.715l-0.564-0.235l-1.149-0.478l-1.2-0.332l-0.587-0.163l-11.447-3.17
		c-2.128-9.803-5.47-17.692-9.988-23.548c-31.278-40.539-46.197-51.417-54.698-56.072C405.88,54.801,396.903,52.671,386.871,52.671
		L386.871,52.671z"/>
</g>
<g>
	<g>
		<g>
			<path style="fill:#B72121;" d="M480.737,169.493l-30.654-8.488c0,0-0.583-21.183-6.412-28.738
				c-5.829-7.555-31.089-40.293-45.423-48.143c-14.335-7.85-41.659,3.77-52.037,7.142c-10.378,3.372-74.834,17.564-105.332,24.098
				s-52.58,45.204-63.674,89.304c-11.094,44.099,19.4,126.88,25.691,153.858c6.29,26.978,8.885,77.203,23.164,130.157
				c0,0,5.715,31.439,11.072,83.242c5.357,51.803,15.411,82.057,15.411,82.057l22.585,19.659c0,0,30.654,8.488,96.39,12.778
				c65.736,4.29,67.391-15.28,67.391-15.28s-3.85-12.114-4.28-51.878c-0.43-39.764-0.969-69.793-6.296-90.896
				c-5.327-21.103-5.091-83.408-5.091-83.408s38.169-56.586,58.552-94.255c20.383-37.668,30.17-87.867,30.947-127.715
				C513.517,183.14,480.737,169.493,480.737,169.493z M405.793,239.492l-6.278,19.324l-12.613,8.795l-6.144-6.886l4.316-14.009
				l4.853-11.966l15.131-5.87L405.793,239.492z"/>
			<path d="M385.871,81.452c4.609,0,8.879,0.756,12.376,2.672c14.335,7.85,39.594,40.588,45.423,48.143
				c5.829,7.555,6.412,28.738,6.412,28.738l30.654,8.488c0,0,32.78,13.647,32.003,53.494
				c-0.777,39.848-10.564,90.047-30.947,127.715c-20.383,37.668-58.552,94.255-58.552,94.255s-0.236,62.305,5.091,83.408
				c5.327,21.103,5.866,51.132,6.296,90.896c0.43,39.764,4.28,51.878,4.28,51.878s-1.341,15.894-49.727,15.894
				c-5.302,0-11.172-0.191-17.664-0.615c-65.736-4.29-96.39-12.778-96.39-12.778l-22.585-19.659c0,0-10.054-30.254-15.411-82.057
				c-5.357-51.803-11.072-83.242-11.072-83.242c-14.279-52.954-16.874-103.179-23.164-130.157
				c-6.29-26.978-36.785-109.759-25.69-153.858c11.094-44.1,33.176-82.77,63.674-89.304c30.498-6.534,94.954-20.726,105.332-24.098
				C354.056,88.716,371.589,81.452,385.871,81.452 M385.871,71.671c-13.472,0-28.237,5.22-38.007,8.674
				c-1.796,0.635-3.376,1.195-4.677,1.618c-9.11,2.96-67.658,15.973-104.358,23.836c-31.462,6.741-57.381,41.907-71.111,96.482
				c-9.459,37.597,7.906,96.842,19.396,136.045c2.694,9.192,5.021,17.13,6.254,22.42c2.275,9.755,4.101,23.104,6.215,38.561
				c3.544,25.906,7.951,58.118,16.919,91.508c0.661,3.74,5.961,34.379,10.898,82.115c5.405,52.266,15.434,82.859,15.858,84.136
				l0.843,2.538l2.017,1.756l22.585,19.659l1.673,1.457l2.138,0.592c1.291,0.357,32.383,8.806,98.363,13.112
				c6.46,0.422,12.617,0.635,18.301,0.635c53.239,0,58.982-19.023,59.474-24.853l0.163-1.935l-0.588-1.851
				c0.002-0.002-3.422-12.161-3.821-49.021c-0.471-43.596-1.15-71.623-6.593-93.184c-3.904-15.466-4.771-59.033-4.797-78.03
				c7.673-11.467,39.188-58.971,57.377-92.583c22.599-41.764,31.412-95.664,32.124-132.179
				c0.897-45.979-36.434-62.053-38.023-62.715l-0.562-0.234l-0.587-0.163l-23.931-6.626c-0.764-8.294-2.766-20.362-8.002-27.148
				c-21.458-27.812-37.766-44.886-48.47-50.747C398.252,72.974,392.507,71.671,385.871,71.671L385.871,71.671z"/>
		</g>
		<path style="fill:#F24040;" d="M222.005,133.585l54.428-11.313l59.065-16.001l30.516-16.137c0,0-25.531,27.553-36.233,58.151
			c-10.702,30.598-13.459,53.859-13.459,53.859s-29.151,21.697-66.186,24.263c-37.034,2.565-58.418-9.635-58.418-9.635
			s-1.998-11.04-1.532-22.119c0.356-8.471,11.516-35.432,17.32-43.072S222.005,133.585,222.005,133.585z"/>
		<path style="fill:#F24040;" d="M450.696,169.767l25.697,11.791c0,0,23.628,12.509,17.685,24.682
			c-5.942,12.173-62.604,25.632-62.604,25.632s17.622-13.867,21.11-28.308C455.582,191.156,450.696,169.767,450.696,169.767z"/>
		<path style="fill:#F24040;" d="M394.11,96.784l37.008,39.055c0,0,12.066,10.926,4.448,25.025
			c-7.618,14.099-12.972,21.708-24.214,16.153c-11.242-5.554-28.862-18.301-30.64-37.432
			C378.934,120.453,394.11,96.784,394.11,96.784z"/>
		<path style="fill:#F24040;" d="M291.026,449.746c-1.601-23.119,16.171-52.948,34.892-73.434
			c21.846-23.904,103.561-75.565,122.564-75.524c19.002,0.041-21.797,83.958-31.542,101.405
			c-13.316,23.843-34.961,42.491-41.433,47.01c-6.472,4.52-33.199,28.455-54.064,27.638
			C300.577,476.026,292.627,472.865,291.026,449.746z"/>
		<g>
			<path style="fill:#FFFFFF;" d="M231.775,509.732c0,0,12.904,9.963,49.389,14.221s90.09,0.998,90.09,0.998l18.436,129.005
				c0,0-57.596,4.442-90.572-1.417s-51.328-16.096-51.328-16.096L231.775,509.732z"/>
			<path d="M344.917,656.773c-15.816,0-32.9-0.701-46.013-3.03c-32.8-5.826-51.525-16.129-51.71-16.233l-0.54-0.301l-16.46-130.227
				l2.325,1.779c0.128,0.098,13.181,9.821,48.786,13.977c35.959,4.197,89.337,1.021,89.874,0.991l1.125-0.068l18.779,131.412
				l-1.3,0.1C389.437,655.201,368.601,656.773,344.917,656.773z M248.922,635.661c3.255,1.691,21.114,10.47,50.409,15.675
				c29.714,5.281,80.224,2.103,88.961,1.494l-18.092-126.594c-7.934,0.431-55.919,2.811-89.18-1.067
				c-28.393-3.315-42.581-10.007-47.706-12.99L248.922,635.661z"/>
		</g>
		<path d="M419.545,451.489c0,0-19.23,16.26-23.915,26.989c-4.685,10.729-27.967,27.27-39.41,25.348
			c-11.442-1.922-53.53-2.173-69.024-3.814c-15.494-1.641-57.167-15.492-57.167-15.492s18.106,13.222,36.675,20.078
			c18.57,6.856,36.904,3.777,52.103,7.7c15.2,3.923,41.063-1.487,56.726-3.929c10.251-1.598,17.422-8.22,21.733-15.431l-0.025,0.067
			l26.048,175.814L403.03,477.601C407.36,466.991,419.545,451.489,419.545,451.489z"/>
		<path d="M252.542,653.981c0,0,33.818,10.299,55.414,15.136c21.596,4.837,64.384,8.659,86.35,5.78s29.824-0.207,35.968-9.729
			c6.144-9.522,7.401-11.822,7.401-11.822l1.232,17.792c0,0-5.817,11.741-22.983,13.702c-17.166,1.961-73.825,0.177-98.308-3.603
			s-42.49-7.598-42.49-7.598L252.542,653.981z"/>
		<path d="M445.32,182.756c0,0,4.762-21.752,2.523-14.418c-2.24,7.333-14.611,24.073-22.558,31.745
			c-7.947,7.672-26.413,20.143-32.866,5.329c-6.452-14.814-29.855-29.54-29.855-29.54s3.276,3.234,8.399,8.644
			c5.123,5.41,14.509,23.413,14.509,23.413l3.859,21.437l-6.755,6.233l-18.037-11.638l-9.985,2.726l13.179,14.009l-48.631-16.64
			l36.4,21.218l-38.757-1.385l20.357,5.033c0,0,28.598,6.497,21.57,12.749c-7.028,6.252-7.152,19.148-10.153,32.582
			c-3.001,13.434-14.261,42.023-14.261,42.023s12.642-14.441,22.123-29.341c9.481-14.9,9.649-36.955,9.649-36.955l7.153-9.345
			c0,0,1.192,7.411,5.697,15.238c4.506,7.827,11.865,13.083,11.865,13.083L386.318,274l19.776,6.43l-13.015-11.646
			c0,0,13.093-1.924,21.985-0.845s19.637,10.509,19.637,10.509s-2.26-9.339-14.855-14.91c-12.595-5.571-17.063-1.531-17.063-1.531
			s6.69-6.229,13.404-12.12c6.714-5.891,24.615-10.892,24.615-10.892s0,0-8.837-0.036c-8.837-0.036-16.129,5.865-16.129,5.865
			s0.418-3.759,2.206-17.109C419.831,214.365,439.798,199.078,445.32,182.756z M395.612,259.08
			c-1.838,5.521-7.469,6.993-9.137,2.361c-1.668-4.632,0.442-8.17,3.885-17.226c3.442-9.056,13.183-10.409,13.183-10.409
			C398.319,241.629,397.45,253.559,395.612,259.08z"/>
		<g>
			<path d="M253.303,586.62c0.579,9.599-0.852,22.268,2.159,31.412c1.267,3.847,5.88,7.279,6.045,9.852
				c-4.274-0.814-16.862-1.027-17.158-5.701c9.787,1.988,3.373-36.346,3.021-42.306c-0.555-9.403,0.172-20.033-1.774-29.248
				c-0.995-4.714-5.952-8.479-6.101-11.228c17.839,2.642,28.682,5.3,31.066,25.605C271.923,576.615,269.161,596.459,253.303,586.62z
				 M253.087,583.014c14.945,8.421,12.327-22.884,8.006-30.151c-3.261-5.484-7.32-8.602-9.91-2.571
				C248.415,556.734,252.677,576.121,253.087,583.014z"/>
			<path d="M293.057,544.219c25.79,2.807,33.652,91.292,7.125,92.361C270.571,637.774,265.857,541.303,293.057,544.219z
				 M292.809,548.922c-17.351-1.927-14.035,85.433,6.763,82.945C317.83,629.683,311.351,551.002,292.809,548.922z"/>
			<path d="M370.182,552.694c0.23,2.789-2.691,6.145-3.778,9.6c-2.15,6.833-1.184,16.471-1.655,23.484
				c-1.343,20.013-2.894,40.013-4.651,59.994c-5.226-0.676-13.135-52.873-14.658-59.825c-1.442,19.072-3.065,38.131-4.866,57.172
				c-4.889-0.695-11.989-48.051-13.379-54.365c-1.988-9.032-3.42-18.373-5.966-27.256c-1.339-4.674-5.818-9.407-6.065-13.015
				c5.525,0.536,13.219-0.215,14.422,3.757c-0.502-1.657-2.394,9.28-2.15,11.034c2.647,19.019,8.287,38.098,12.556,56.809
				c1.332-15.107,4.55-31.693,2.597-46.66c-0.676-5.182-1.89-11.328-4.067-16.151c-1.532-3.393-4.392-3.809-4.635-7.132
				c5.821,0.494,14.074-0.294,15.037,3.657c-0.448-1.839-3.049,3.821-3.004,3.573c-0.554,3.035,0.415,6.131,0.89,9.1
				c2.997,18.759,8.269,37.439,12.535,55.943c1.297-15.662,2.537-31.337,3.508-47.023c0.255-4.126,2.043-10.836,0.563-14.801
				c-1.414-3.791-4.786-5.414-5.041-8.631C362.308,552.226,366.244,552.472,370.182,552.694z"/>
		</g>
	</g>
	<g>
		<path d="M620.446,89.987c13.631,0,29.591,5.306,36.997,7.157c10.586,2.647,75.868,12.351,106.745,16.762
			s55.578,41.463,69.693,84.69c14.115,43.227-10.586,127.918-14.997,155.266c-4.411,27.348-3.529,77.633-14.115,131.447
			c0,0-3.529,31.759-5.293,83.808c-1.764,52.049-9.704,82.926-9.704,82.926l-21.173,21.173c0,0-29.995,10.586-95.277,19.408
			c-12.093,1.634-22.041,2.299-30.237,2.299c-36.047,0-38.049-12.885-38.049-12.885s3.004-12.351,0.685-52.049
			c-2.319-39.699-3.856-69.693,0-91.114c3.856-21.421-0.685-83.56-0.685-83.56s-41.988-53.814-64.925-89.983
			c-22.937-36.17-36.17-85.573-39.698-125.271c-3.529-39.699,28.23-55.578,28.23-55.578l29.994-10.586
			c0,0-0.882-21.173,4.411-29.112c5.293-7.94,28.23-42.345,41.988-51.167C609.169,90.965,614.592,89.987,620.446,89.987
			 M620.446,80.206c-8.373,0-15.334,1.741-20.69,5.176c-10.272,6.587-25.361,24.747-44.847,53.975
			c-4.754,7.132-5.917,19.31-6.107,27.636l-23.416,8.264l-0.574,0.203l-0.545,0.272c-1.54,0.77-37.671,19.385-33.599,65.193
			c3.234,36.379,15.75,89.541,41.181,129.643c20.467,32.275,55.189,77.487,63.637,88.397c1.286,18.958,3.431,62.486,0.607,78.175
			c-3.94,21.886-2.681,49.893-0.138,93.417c2.15,36.799-0.426,49.166-0.452,49.286l-0.46,1.89l0.327,1.804
			c0.771,4.965,6.491,21.166,47.714,21.166c9.211,0,19.824-0.803,31.547-2.387c65.526-8.855,95.959-19.432,97.222-19.878
			l2.092-0.738l1.569-1.569l21.173-21.173l1.891-1.891l0.666-2.59c0.335-1.303,8.227-32.516,10.007-85.031
			c1.626-47.96,4.796-78.891,5.197-82.671c6.64-33.93,8.81-66.371,10.556-92.459c1.041-15.566,1.941-29.009,3.536-38.898
			c0.865-5.363,2.638-13.443,4.69-22.799c8.754-39.904,21.983-100.207,9.949-137.06c-17.468-53.496-45.755-86.787-77.608-91.337
			c-37.155-5.308-96.462-14.244-105.756-16.568c-1.327-0.332-2.943-0.781-4.778-1.291C646.198,83.912,632.842,80.206,620.446,80.206
			L620.446,80.206z"/>
		<path style="fill:#B72121;" d="M500.412,240.06c3.529,39.699,16.762,89.101,39.699,125.271
			c22.937,36.17,64.925,89.983,64.925,89.983s4.541,62.139,0.685,83.56c-3.856,21.421-2.319,51.415,0,91.114
			c2.319,39.699-0.685,52.049-0.685,52.049s3.004,19.408,68.286,10.586c65.282-8.822,95.277-19.408,95.277-19.408l21.173-21.173
			c0,0,7.94-30.877,9.704-82.926c1.764-52.049,5.293-83.808,5.293-83.808c10.586-53.814,9.704-104.099,14.115-131.447
			c4.411-27.348,29.112-112.038,14.997-155.266c-14.115-43.227-38.816-80.279-69.693-84.69
			c-30.877-4.411-96.159-14.115-106.745-16.762s-38.649-12.351-52.406-3.529c-13.758,8.822-36.695,43.227-41.988,51.167
			c-5.293,7.94-4.411,29.112-4.411,29.112l-29.994,10.586C528.642,184.481,496.883,200.361,500.412,240.06z M608.244,238.497
			l15.501,4.81l5.668,11.603l5.274,13.677l-5.654,7.294l-13.191-7.902l-7.598-18.844V238.497z"/>
	</g>
	<path style="fill:#F24040;" d="M796.781,466.272c0,0,7.156-30.684,7.082-49.901c-0.028-7.277,0.027-59.84-10.829-44.245
		c-38.985,56.002-114.789,68.378-121.905,89.448c-6.395,18.934,13.342,25.302,20.111,29.363c6.769,4.062,43.007-0.928,68.378-8.973
		C779.523,475.654,796.781,466.272,796.781,466.272z"/>
	<g>
		<path style="fill:#FFFFFF;" d="M800.52,506.703c0,0-12.185,10.831-48.288,17.6c-36.103,6.769-89.806,7.221-89.806,7.221
			l-9.477,129.971c0,0,57.765,0.451,90.258-7.672C775.7,645.7,793.3,634.218,793.3,634.218L800.52,506.703z"/>
		<path d="M654.299,662.721c-0.841,0-1.31-0.004-1.36-0.004l-1.305-0.011l9.654-132.395l1.127-0.01
			c0.536-0.005,54.011-0.528,89.592-7.2c35.36-6.63,47.582-17.207,47.701-17.312l2.199-1.956l-7.422,131.071l-0.518,0.338
			c-0.177,0.116-18.146,11.687-50.464,19.766C714.005,662.384,663.243,662.721,654.299,662.721z M654.264,660.275
			c0.018,0,0.035,0,0.053,0c8.905,0,59.376-0.334,88.595-7.638c28.9-7.225,46.079-17.209,49.204-19.121l7.036-124.266
			c-4.906,3.33-18.598,10.987-46.693,16.254c-32.912,6.172-80.95,7.114-88.895,7.229L654.264,660.275z"/>
	</g>
	<path d="M609.174,461.575c0,0,20.308,14.893,25.723,25.272s29.785,25.272,41.067,22.564c11.282-2.708,53.252-5.867,68.596-8.575
		c15.344-2.708,55.96-19.405,55.96-19.405s-17.149,14.441-35.2,22.564c-18.052,8.123-36.554,6.318-51.447,11.282
		c-14.893,4.964-41.067,1.354-56.862,0c-10.337-0.886-17.949-6.996-22.747-13.892l0.03,0.065l-13.837,177.194l6.997-192.16
		C622.401,476.198,609.174,461.575,609.174,461.575z"/>
	<path d="M789.771,652.043c0,0-33.025,12.611-54.236,18.929c-21.211,6.318-63.632,13.087-85.745,11.734
		c-22.113-1.354-29.767,1.854-36.554-7.221c-6.787-9.075-8.2-11.282-8.2-11.282v17.835c0,0,6.614,11.311,23.875,12.081
		c17.261,0.77,73.661-4.925,97.824-10.388c24.163-5.463,41.863-10.516,41.863-10.516L789.771,652.043z"/>
	<path d="M608.244,238.497c2.707,13.194-9.651,16.651-9.651,16.651s-3.82-2.987-12.633-2.341c-3.945,0.289-21.869,8.41-25.277,8.659
		c0,0,27.739-3.469,37.449,0.321c8.321,3.247,14.671,9.6,14.671,9.6s-4.737-3.721-16.916,2.707
		c-12.18,6.428-13.789,15.901-13.789,15.901s10.068-10.15,18.864-11.841s21.991-0.677,21.991-0.677l-12.18,12.518l19.284-7.781
		l4.629,24.475c0,0,2.919-15.074,2.919-23.122c0-9.031,4.631-15.595,4.631-15.595l0,0c0,0,1.802,15.544,12.29,29.753
		c10.488,14.21,12.896,50.016,12.896,50.016s1.035-35.555-2.887-48.75c-3.922-13.194-10.517-29.575-17.96-35.327
		s30.845-9.87,30.845-9.87l19.961-6.428l-38.569,4.06l34.847-23.682l-47.365,19.961l12.18-14.886l15.362-16.895l-37.524,27.383
		l-6.901-4.81l-0.38-9.102c0,0-0.419-20.464,0-27.903c0.38-6.735,12.412-35.6,12.412-35.6s-19.924,26.102-25.337,41.327
		c-5.413,15.224-16.124,10.073-26.299,5.774c-15.074-6.368-30.306-39.372-28.43-31.937c2.131,8.448,12.074,28.454,12.074,28.454
		C587.273,225.039,605.537,225.303,608.244,238.497z M610.096,243.307c0,0,9.811,0.677,13.871,9.473
		c4.06,8.796,6.41,12.18,5.066,16.916c-1.344,4.736-7.063,3.657-9.279-1.724C617.539,262.591,615.847,250.75,610.096,243.307z"/>
	<path style="fill:#F24040;" d="M816.538,173.524l-0.552-0.428c-8.634-21.973-28.457-43.673-49.533-47.296
		c-22.572-3.88-45.427-6.49-68.076-9.956c-9.768-1.494-20.208-2.148-29.751-4.674c-12.932-3.422-28.951-15.288-42.737-13.333
		c-7.801,1.106-22.172,10.233-22.739,18.755c-0.523,7.854,13.076,21.439,16.724,28.701c5.393,10.734,13.292,14.988,25.465,11.926
		c4.736-1.191,28.456-12.917,31.174-7.087c-21.601,5.792-48.188,45.481-12.873,51.951c7.807,1.43,22.021,1.694,31.097,2.715
		c0.296,0.033,19.914,6.085,26.812,8.829c13.512,5.376,22.299,13.737,33.889,27.158c13.116,17.218,41.569,69.479,52.678,109.556
		C820.835,300.512,834.986,219.667,816.538,173.524z"/>
	<path style="fill:#F24040;" d="M624.554,321.545c-9.939-13.542-38.179-4.744-21.777-30.822c-9.098-1.007-16.136,7.636-24.843,9.047
		c-1.944,0.315-3.781,0.369-5.561,0.285c-0.076-0.083-0.145-0.174-0.221-0.257c-5.947-6.453-13.371-11.329-20.713-16.137
		c-10.299-11.519-8.862-31.516,2.977-41.445c-2.319,1.945-17.923-18.007-19.342-20.197c-2.999-4.628-7.936-22.59-12.484-23.285
		c-10.23,20.247-8.906,49.265-3.33,70.587c2.784,10.645,8.532,22.253,19.246,24.754c4.569,1.067,19.578,12.444,33.848,33.617
		c8.17,12.122,18.414,38.216,36.037,30.863C621.472,353.097,634.48,335.071,624.554,321.545z"/>
	<g>
		<path d="M675.984,602.028c-0.375,10.705-3.088,25.505-0.954,34.94c0.904,3.952,5.261,6.323,5.177,9.168
			c-4.277,0.497-17.083,4.414-16.893-0.858c9.752-0.914,7.158-42.589,7.413-49.282c0.403-10.559,2.2-22.828,1.208-32.838
			c-0.503-5.134-4.992-8.324-4.854-11.435c17.26-0.915,27.681-0.376,28.183,21.534C695.563,585.753,690.964,608.549,675.984,602.028
			z M676.126,598.006c14.171,5.276,14.48-28.881,10.888-35.947c-2.695-5.382-6.39-7.966-9.534-0.576
			C674.105,569.428,676.402,590.316,676.126,598.006z"/>
		<path d="M719.315,545.196c25.236-2.944,26.938,87.134-0.345,97.428C688.523,654.162,692.791,548.1,719.315,545.196z
			 M718.69,550.313c-16.959,1.91-21.453,97.232,0.042,87.437C737.58,629.243,736.857,548.176,718.69,550.313z"/>
		<path d="M795.046,535.788c0.093,2.674-2.977,6.692-4.232,10.366c-2.494,7.298-2.026,16.564-2.863,23.632
			c-2.416,20.25-5.083,40.673-8.005,61.28c-5.35,1.197-10.312-49.024-11.427-55.633c-2.621,19.809-5.464,39.781-8.532,59.923
			c-4.987,1.02-9.028-45.707-9.998-51.853c-1.378-8.822-2.167-18.147-4.086-26.74c-1.004-4.54-5.106-8.407-5.092-12.129
			c5.424-0.734,13.083-3.318,14.012,0.491c-0.388-1.587-2.992,10.165-2.867,11.917c1.372,18.956,5.796,36.99,8.922,54.864
			c2.314-15.886,6.59-33.738,5.545-48.403c-0.358-5.089-1.192-11.026-3.058-15.394c-1.308-3.087-4.117-2.821-4.146-6.167
			c5.733-0.879,13.952-3.641,14.679,0.104c-0.338-1.742-3.25,4.599-3.19,4.337c-0.731,3.205,0.051,6.089,0.348,8.966
			c1.899,18.122,6.141,35.37,9.435,52.567c2.189-16.068,4.294-32.05,6.103-47.891c0.472-4.155,2.604-11.256,1.334-14.795
			c-1.21-3.395-4.474-4.175-4.555-7.309C787.258,537.235,791.15,536.525,795.046,535.788z"/>
	</g>
</g>
</svg>
